<mxfile host="app.diagrams.net" modified="2022-08-05T06:10:52.528Z" agent="5.0 (Windows NT 10.0; Win64; x64) AppleWebKit/537.36 (KHTML, like Gecko) Chrome/103.0.0.0 Safari/537.36" etag="mIrXHgaCF5B2EdRd1SfU" version="20.2.3" type="github">
  <diagram id="MbDQIvrsSx4T4B3flQ1r" name="Page-1">
    <mxGraphModel dx="1422" dy="794" grid="1" gridSize="10" guides="1" tooltips="1" connect="1" arrows="1" fold="1" page="1" pageScale="1" pageWidth="827" pageHeight="1169" math="0" shadow="0">
      <root>
        <mxCell id="0" />
        <mxCell id="1" parent="0" />
        <mxCell id="34UCa8jiqg8BhMM7ebZQ-3" value="用户层" style="text;strokeColor=none;fillColor=none;html=1;fontSize=24;fontStyle=0;verticalAlign=middle;align=center;fontColor=default;" parent="1" vertex="1">
          <mxGeometry x="70" y="120" width="100" height="40" as="geometry" />
        </mxCell>
        <mxCell id="34UCa8jiqg8BhMM7ebZQ-7" value="展示层" style="text;strokeColor=none;fillColor=none;html=1;fontSize=24;fontStyle=0;verticalAlign=middle;align=center;fontColor=default;" parent="1" vertex="1">
          <mxGeometry x="70" y="230" width="100" height="40" as="geometry" />
        </mxCell>
        <mxCell id="34UCa8jiqg8BhMM7ebZQ-8" value="" style="rounded=1;whiteSpace=wrap;html=1;strokeColor=#82b366;fillColor=#d5e8d4;fontColor=default;" parent="1" vertex="1">
          <mxGeometry x="170" y="210" width="660" height="90" as="geometry" />
        </mxCell>
        <mxCell id="34UCa8jiqg8BhMM7ebZQ-9" value="地灾管理系统" style="rounded=1;whiteSpace=wrap;html=1;fontColor=default;strokeColor=default;fillColor=default;" parent="1" vertex="1">
          <mxGeometry x="190" y="220" width="180" height="60" as="geometry" />
        </mxCell>
        <mxCell id="34UCa8jiqg8BhMM7ebZQ-10" value="地灾浙政钉" style="rounded=1;whiteSpace=wrap;html=1;fontColor=default;strokeColor=default;fillColor=default;" parent="1" vertex="1">
          <mxGeometry x="380" y="220" width="180" height="60" as="geometry" />
        </mxCell>
        <mxCell id="34UCa8jiqg8BhMM7ebZQ-11" value="地灾浙里办" style="rounded=1;whiteSpace=wrap;html=1;fontColor=default;strokeColor=default;fillColor=default;" parent="1" vertex="1">
          <mxGeometry x="570" y="220" width="180" height="60" as="geometry" />
        </mxCell>
        <mxCell id="34UCa8jiqg8BhMM7ebZQ-12" value="" style="rounded=1;whiteSpace=wrap;html=1;strokeColor=#6c8ebf;fillColor=#dae8fc;fontColor=default;" parent="1" vertex="1">
          <mxGeometry x="170" y="120" width="660" height="80" as="geometry" />
        </mxCell>
        <mxCell id="34UCa8jiqg8BhMM7ebZQ-13" value="各级工作人员" style="ellipse;whiteSpace=wrap;html=1;fontColor=default;strokeColor=default;fillColor=default;" parent="1" vertex="1">
          <mxGeometry x="230" y="135" width="110" height="55" as="geometry" />
        </mxCell>
        <mxCell id="34UCa8jiqg8BhMM7ebZQ-14" value="群众" style="ellipse;whiteSpace=wrap;html=1;fontColor=default;strokeColor=default;fillColor=default;" parent="1" vertex="1">
          <mxGeometry x="410" y="135" width="100" height="55" as="geometry" />
        </mxCell>
        <mxCell id="34UCa8jiqg8BhMM7ebZQ-15" value="系统运维人员" style="ellipse;whiteSpace=wrap;html=1;fontColor=default;strokeColor=default;fillColor=default;" parent="1" vertex="1">
          <mxGeometry x="580" y="135" width="130" height="55" as="geometry" />
        </mxCell>
        <mxCell id="34UCa8jiqg8BhMM7ebZQ-16" value="" style="rounded=1;whiteSpace=wrap;html=1;strokeColor=#d79b00;fillColor=#ffe6cc;fontColor=default;fontSize=22;" parent="1" vertex="1">
          <mxGeometry x="170" y="320" width="660" height="80" as="geometry" />
        </mxCell>
        <mxCell id="34UCa8jiqg8BhMM7ebZQ-17" value="控制层" style="text;strokeColor=none;fillColor=none;html=1;fontSize=24;fontStyle=0;verticalAlign=middle;align=center;fontColor=default;" parent="1" vertex="1">
          <mxGeometry x="70" y="340" width="100" height="40" as="geometry" />
        </mxCell>
        <mxCell id="34UCa8jiqg8BhMM7ebZQ-18" value="" style="rounded=1;whiteSpace=wrap;html=1;strokeColor=#9673a6;fillColor=#e1d5e7;fontColor=default;" parent="1" vertex="1">
          <mxGeometry x="170" y="430" width="660" height="90" as="geometry" />
        </mxCell>
        <mxCell id="34UCa8jiqg8BhMM7ebZQ-19" value="服务层" style="text;strokeColor=none;fillColor=none;html=1;fontSize=24;fontStyle=0;verticalAlign=middle;align=center;fontColor=default;" parent="1" vertex="1">
          <mxGeometry x="70" y="450" width="100" height="40" as="geometry" />
        </mxCell>
        <mxCell id="34UCa8jiqg8BhMM7ebZQ-20" value="&lt;font style=&quot;font-size: 15px&quot;&gt;Data Management&lt;/font&gt;" style="rounded=0;whiteSpace=wrap;html=1;fontSize=22;fontColor=default;strokeColor=default;fillColor=default;" parent="1" vertex="1">
          <mxGeometry x="190" y="440" width="100" height="60" as="geometry" />
        </mxCell>
        <mxCell id="34UCa8jiqg8BhMM7ebZQ-22" value="&lt;font style=&quot;font-size: 15px&quot;&gt;Warn&lt;br&gt;Management&lt;/font&gt;" style="rounded=0;whiteSpace=wrap;html=1;fontSize=22;fontColor=default;strokeColor=default;fillColor=default;" parent="1" vertex="1">
          <mxGeometry x="300" y="440" width="100" height="60" as="geometry" />
        </mxCell>
        <mxCell id="34UCa8jiqg8BhMM7ebZQ-23" value="&lt;font style=&quot;font-size: 15px&quot;&gt;Business&lt;br&gt;Management&lt;/font&gt;" style="rounded=0;whiteSpace=wrap;html=1;fontSize=22;fontColor=default;strokeColor=default;fillColor=default;" parent="1" vertex="1">
          <mxGeometry x="414" y="440" width="100" height="60" as="geometry" />
        </mxCell>
        <mxCell id="34UCa8jiqg8BhMM7ebZQ-24" value="&lt;font style=&quot;font-size: 15px&quot;&gt;System&lt;br&gt;Management&lt;/font&gt;" style="rounded=0;whiteSpace=wrap;html=1;fontSize=22;fontColor=default;strokeColor=default;fillColor=default;" parent="1" vertex="1">
          <mxGeometry x="650" y="440" width="100" height="60" as="geometry" />
        </mxCell>
        <mxCell id="34UCa8jiqg8BhMM7ebZQ-26" value="逻辑层" style="text;strokeColor=none;fillColor=none;html=1;fontSize=24;fontStyle=0;verticalAlign=middle;align=center;fontColor=default;" parent="1" vertex="1">
          <mxGeometry x="70" y="695" width="100" height="40" as="geometry" />
        </mxCell>
        <mxCell id="34UCa8jiqg8BhMM7ebZQ-27" value="" style="rounded=1;whiteSpace=wrap;html=1;fillColor=#b0e3e6;strokeColor=#0e8088;fontColor=default;gradientColor=#ffffff;" parent="1" vertex="1">
          <mxGeometry x="170" y="565" width="660" height="315" as="geometry" />
        </mxCell>
        <mxCell id="34UCa8jiqg8BhMM7ebZQ-28" value="" style="rounded=0;whiteSpace=wrap;html=1;fontSize=15;strokeColor=#006EAF;fillColor=#1ba1e2;fontColor=#ffffff;" parent="1" vertex="1">
          <mxGeometry x="250" y="585" width="510" height="85" as="geometry" />
        </mxCell>
        <mxCell id="34UCa8jiqg8BhMM7ebZQ-31" value="&lt;font style=&quot;font-size: 15px&quot;&gt;Message&lt;br&gt;Management&lt;/font&gt;" style="rounded=0;whiteSpace=wrap;html=1;fontSize=22;fontColor=default;strokeColor=default;fillColor=default;" parent="1" vertex="1">
          <mxGeometry x="530" y="440" width="100" height="60" as="geometry" />
        </mxCell>
        <mxCell id="34UCa8jiqg8BhMM7ebZQ-32" value="" style="rounded=0;whiteSpace=wrap;html=1;fontSize=15;strokeColor=#2D7600;fillColor=#60a917;fontColor=#ffffff;" parent="1" vertex="1">
          <mxGeometry x="250" y="680" width="510" height="90" as="geometry" />
        </mxCell>
        <mxCell id="34UCa8jiqg8BhMM7ebZQ-33" value="" style="rounded=0;whiteSpace=wrap;html=1;fontSize=15;strokeColor=#B09500;fillColor=#e3c800;fontColor=#000000;" parent="1" vertex="1">
          <mxGeometry x="250" y="777" width="510" height="83" as="geometry" />
        </mxCell>
        <mxCell id="34UCa8jiqg8BhMM7ebZQ-34" value="功能组件" style="text;strokeColor=none;fillColor=none;html=1;fontSize=16;fontStyle=0;verticalAlign=middle;align=center;fontColor=default;" parent="1" vertex="1">
          <mxGeometry x="160" y="607.5" width="100" height="40" as="geometry" />
        </mxCell>
        <mxCell id="34UCa8jiqg8BhMM7ebZQ-35" value="共享组件" style="text;strokeColor=none;fillColor=none;html=1;fontSize=16;fontStyle=0;verticalAlign=middle;align=center;fontColor=default;" parent="1" vertex="1">
          <mxGeometry x="160" y="700" width="100" height="40" as="geometry" />
        </mxCell>
        <mxCell id="34UCa8jiqg8BhMM7ebZQ-36" value="基础组件" style="text;strokeColor=none;fillColor=none;html=1;fontSize=16;fontStyle=0;verticalAlign=middle;align=center;fontColor=default;" parent="1" vertex="1">
          <mxGeometry x="160" y="799.5" width="100" height="40" as="geometry" />
        </mxCell>
        <mxCell id="34UCa8jiqg8BhMM7ebZQ-37" value="&lt;span style=&quot;font-size: 15px&quot;&gt;space &lt;br&gt;code&lt;/span&gt;" style="rounded=0;whiteSpace=wrap;html=1;fontSize=22;fontColor=default;strokeColor=default;fillColor=default;" parent="1" vertex="1">
          <mxGeometry x="530" y="597.5" width="80" height="60" as="geometry" />
        </mxCell>
        <mxCell id="34UCa8jiqg8BhMM7ebZQ-38" value="&lt;span style=&quot;font-size: 15px&quot;&gt;Warn Generator&lt;/span&gt;" style="rounded=0;whiteSpace=wrap;html=1;fontSize=22;fontColor=default;strokeColor=default;fillColor=default;" parent="1" vertex="1">
          <mxGeometry x="260" y="597.5" width="80" height="60" as="geometry" />
        </mxCell>
        <mxCell id="34UCa8jiqg8BhMM7ebZQ-39" value="&lt;span style=&quot;font-size: 15px&quot;&gt;Warn Handler&lt;/span&gt;" style="rounded=0;whiteSpace=wrap;html=1;fontSize=22;fontColor=default;strokeColor=default;fillColor=default;" parent="1" vertex="1">
          <mxGeometry x="350" y="597.5" width="80" height="60" as="geometry" />
        </mxCell>
        <mxCell id="34UCa8jiqg8BhMM7ebZQ-40" value="&lt;span style=&quot;font-size: 15px&quot;&gt;Warn Sender&lt;/span&gt;" style="rounded=0;whiteSpace=wrap;html=1;fontSize=22;fontColor=default;strokeColor=default;fillColor=default;" parent="1" vertex="1">
          <mxGeometry x="440" y="597.5" width="80" height="60" as="geometry" />
        </mxCell>
        <mxCell id="34UCa8jiqg8BhMM7ebZQ-42" value="&lt;span style=&quot;font-size: 15px&quot;&gt;Security&amp;amp;&lt;br&gt;Audit&lt;br&gt;&lt;/span&gt;" style="rounded=0;whiteSpace=wrap;html=1;fontSize=22;fontColor=default;strokeColor=default;fillColor=default;" parent="1" vertex="1">
          <mxGeometry x="260" y="789.5" width="90" height="60.5" as="geometry" />
        </mxCell>
        <mxCell id="34UCa8jiqg8BhMM7ebZQ-44" value="&lt;span style=&quot;font-size: 15px&quot;&gt;Error &lt;br&gt;Handler&lt;/span&gt;" style="rounded=0;whiteSpace=wrap;html=1;fontSize=22;fontColor=default;strokeColor=default;fillColor=default;" parent="1" vertex="1">
          <mxGeometry x="360" y="789.5" width="90" height="61.5" as="geometry" />
        </mxCell>
        <mxCell id="34UCa8jiqg8BhMM7ebZQ-46" value="&lt;span style=&quot;font-size: 15px&quot;&gt;Report&lt;br&gt;Generator&lt;/span&gt;" style="rounded=0;whiteSpace=wrap;html=1;fontSize=22;fontColor=default;strokeColor=default;fillColor=default;" parent="1" vertex="1">
          <mxGeometry x="260" y="695" width="90" height="61.5" as="geometry" />
        </mxCell>
        <mxCell id="34UCa8jiqg8BhMM7ebZQ-48" value="数据层" style="text;strokeColor=none;fillColor=none;html=1;fontSize=24;fontStyle=0;verticalAlign=middle;align=center;fontColor=default;" parent="1" vertex="1">
          <mxGeometry x="70" y="950" width="100" height="40" as="geometry" />
        </mxCell>
        <mxCell id="34UCa8jiqg8BhMM7ebZQ-49" value="" style="rounded=1;whiteSpace=wrap;html=1;strokeColor=#996185;fillColor=#E6E0C8;fontColor=default;" parent="1" vertex="1">
          <mxGeometry x="170" y="920" width="660" height="100" as="geometry" />
        </mxCell>
        <mxCell id="34UCa8jiqg8BhMM7ebZQ-50" value="&lt;span style=&quot;font-size: 15px&quot;&gt;Job&lt;br&gt;Scheduler&lt;br&gt;&lt;/span&gt;" style="rounded=0;whiteSpace=wrap;html=1;fontSize=22;fontColor=default;strokeColor=default;fillColor=default;" parent="1" vertex="1">
          <mxGeometry x="360" y="696.5" width="80" height="60" as="geometry" />
        </mxCell>
        <mxCell id="34UCa8jiqg8BhMM7ebZQ-51" value="&lt;span style=&quot;font-size: 15px&quot;&gt;Log&lt;br&gt;Handler&lt;/span&gt;" style="rounded=0;whiteSpace=wrap;html=1;fontSize=22;fontColor=default;strokeColor=default;fillColor=default;" parent="1" vertex="1">
          <mxGeometry x="460" y="789.5" width="90" height="61.5" as="geometry" />
        </mxCell>
        <mxCell id="34UCa8jiqg8BhMM7ebZQ-52" value="&lt;span style=&quot;font-size: 15px&quot;&gt;Common&lt;br&gt;Code&lt;br&gt;&lt;/span&gt;" style="rounded=0;whiteSpace=wrap;html=1;fontSize=22;fontColor=default;strokeColor=default;fillColor=default;" parent="1" vertex="1">
          <mxGeometry x="560" y="789.5" width="90" height="61.5" as="geometry" />
        </mxCell>
        <mxCell id="34UCa8jiqg8BhMM7ebZQ-54" value="&lt;span style=&quot;font-size: 15px&quot;&gt;risk&lt;br&gt;model&lt;/span&gt;" style="rounded=0;whiteSpace=wrap;html=1;fontSize=22;fontColor=default;strokeColor=default;fillColor=default;" parent="1" vertex="1">
          <mxGeometry x="620" y="597.5" width="80" height="60" as="geometry" />
        </mxCell>
        <mxCell id="24nKrhlY2BfEUD9Ug1ou-1" value="&lt;span style=&quot;font-size: 15px&quot;&gt;MySql&lt;br&gt;&lt;/span&gt;" style="rounded=0;whiteSpace=wrap;html=1;fontSize=22;fontColor=default;strokeColor=default;fillColor=default;" parent="1" vertex="1">
          <mxGeometry x="220" y="939.75" width="150" height="60.5" as="geometry" />
        </mxCell>
        <mxCell id="24nKrhlY2BfEUD9Ug1ou-2" value="&lt;span style=&quot;font-size: 15px&quot;&gt;redis&lt;br&gt;&lt;/span&gt;" style="rounded=0;whiteSpace=wrap;html=1;fontSize=22;fontColor=default;strokeColor=default;fillColor=default;" parent="1" vertex="1">
          <mxGeometry x="416" y="939.75" width="134" height="60.5" as="geometry" />
        </mxCell>
        <mxCell id="24nKrhlY2BfEUD9Ug1ou-3" value="AdminRestController" style="rounded=1;whiteSpace=wrap;html=1;fontColor=default;strokeColor=default;fillColor=default;" parent="1" vertex="1">
          <mxGeometry x="190" y="330" width="180" height="60" as="geometry" />
        </mxCell>
        <mxCell id="24nKrhlY2BfEUD9Ug1ou-4" value="WebRestController" style="rounded=1;whiteSpace=wrap;html=1;fontColor=default;strokeColor=default;fillColor=default;" parent="1" vertex="1">
          <mxGeometry x="390" y="330" width="180" height="60" as="geometry" />
        </mxCell>
        <mxCell id="24nKrhlY2BfEUD9Ug1ou-5" value="H5RestController" style="rounded=1;whiteSpace=wrap;html=1;fontColor=default;strokeColor=default;fillColor=default;" parent="1" vertex="1">
          <mxGeometry x="590" y="330" width="180" height="60" as="geometry" />
        </mxCell>
      </root>
    </mxGraphModel>
  </diagram>
</mxfile>
